<?xml version="1.0" encoding="UTF-8" standalone="no"?>
<!DOCTYPE svg PUBLIC "-//W3C//DTD SVG 1.1//EN"
 "http://www.w3.org/Graphics/SVG/1.1/DTD/svg11.dtd">
<!-- Generated by graphviz version 2.26.3 (20100126.1600)
 -->
<!-- Title: controllers_diagram Pages: 1 -->
<svg width="518pt" height="593pt"
 viewBox="0.00 0.00 518.00 593.00" xmlns="http://www.w3.org/2000/svg" xmlns:xlink="http://www.w3.org/1999/xlink">
<g id="graph1" class="graph" transform="scale(1 1) rotate(0) translate(4 589)">
<title>controllers_diagram</title>
<polygon fill="white" stroke="white" points="-4,5 -4,-589 515,-589 515,5 -4,5"/>
<!-- _diagram_info -->
<g id="node1" class="node"><title>_diagram_info</title>
<text text-anchor="start" x="207" y="-63.3" font-family="Times,serif" font-size="13.00">Controllers diagram</text>
<text text-anchor="start" x="207" y="-49.3" font-family="Times,serif" font-size="13.00">Date: Nov 21 2010 &#45; 14:22</text>
<text text-anchor="start" x="207" y="-35.3" font-family="Times,serif" font-size="13.00">Migration version: 20101115184903</text>
<text text-anchor="start" x="207" y="-21.3" font-family="Times,serif" font-size="13.00">Generated by RailRoady 0.11.2</text>
<text text-anchor="start" x="207" y="-7.3" font-family="Times,serif" font-size="13.00">http://railroady.prestonlee.com</text>
</g>
<!-- ApplicationController -->
<g id="node2" class="node"><title>ApplicationController</title>
<polyline fill="none" stroke="black" points="319,-109.5 497,-109.5 "/>
<path fill="none" stroke="black" d="M497,-109.5C503,-109.5 509,-115.5 509,-121.5"/>
<polyline fill="none" stroke="black" points="509,-121.5 509,-205.5 "/>
<path fill="none" stroke="black" d="M509,-205.5C509,-211.5 503,-217.5 497,-217.5"/>
<polyline fill="none" stroke="black" points="497,-217.5 319,-217.5 "/>
<path fill="none" stroke="black" d="M319,-217.5C313,-217.5 307,-211.5 307,-205.5"/>
<polyline fill="none" stroke="black" points="307,-205.5 307,-121.5 "/>
<path fill="none" stroke="black" d="M307,-121.5C307,-115.5 313,-109.5 319,-109.5"/>
<text text-anchor="middle" x="408" y="-200.9" font-family="Times,serif" font-size="14.00">ApplicationController</text>
<polyline fill="none" stroke="black" points="307,-194.5 509,-194.5 "/>
<text text-anchor="start" x="315" y="-177.9" font-family="Times,serif" font-size="14.00">_one_time_conditions_valid_8?</text>
<polyline fill="none" stroke="black" points="307,-171.5 509,-171.5 "/>
<polyline fill="none" stroke="black" points="307,-147.5 509,-147.5 "/>
<text text-anchor="start" x="315" y="-130.9" font-family="Times,serif" font-size="14.00">_layout</text>
<text text-anchor="start" x="315" y="-115.9" font-family="Times,serif" font-size="14.00">_run_process_action_callbacks</text>
</g>
<!-- IterationsController -->
<g id="node3" class="node"><title>IterationsController</title>
<polyline fill="none" stroke="black" points="319,-253.5 425,-253.5 "/>
<path fill="none" stroke="black" d="M425,-253.5C431,-253.5 437,-259.5 437,-265.5"/>
<polyline fill="none" stroke="black" points="437,-265.5 437,-424.5 "/>
<path fill="none" stroke="black" d="M437,-424.5C437,-430.5 431,-436.5 425,-436.5"/>
<polyline fill="none" stroke="black" points="425,-436.5 319,-436.5 "/>
<path fill="none" stroke="black" d="M319,-436.5C313,-436.5 307,-430.5 307,-424.5"/>
<polyline fill="none" stroke="black" points="307,-424.5 307,-265.5 "/>
<path fill="none" stroke="black" d="M307,-265.5C307,-259.5 313,-253.5 319,-253.5"/>
<text text-anchor="middle" x="372" y="-419.9" font-family="Times,serif" font-size="14.00">IterationsController</text>
<polyline fill="none" stroke="black" points="307,-413.5 437,-413.5 "/>
<text text-anchor="start" x="315" y="-396.9" font-family="Times,serif" font-size="14.00">create</text>
<text text-anchor="start" x="315" y="-381.9" font-family="Times,serif" font-size="14.00">destroy</text>
<text text-anchor="start" x="315" y="-366.9" font-family="Times,serif" font-size="14.00">edit</text>
<text text-anchor="start" x="315" y="-351.9" font-family="Times,serif" font-size="14.00">index</text>
<text text-anchor="start" x="315" y="-336.9" font-family="Times,serif" font-size="14.00">new</text>
<text text-anchor="start" x="315" y="-321.9" font-family="Times,serif" font-size="14.00">show</text>
<text text-anchor="start" x="315" y="-306.9" font-family="Times,serif" font-size="14.00">update</text>
<polyline fill="none" stroke="black" points="307,-300.5 437,-300.5 "/>
<polyline fill="none" stroke="black" points="307,-276.5 437,-276.5 "/>
<text text-anchor="start" x="315" y="-259.9" font-family="Times,serif" font-size="14.00">_layout</text>
</g>
<!-- ProjectController -->
<g id="node4" class="node"><title>ProjectController</title>
<polyline fill="none" stroke="black" points="13,-415.5 106,-415.5 "/>
<path fill="none" stroke="black" d="M106,-415.5C112,-415.5 118,-421.5 118,-427.5"/>
<polyline fill="none" stroke="black" points="118,-427.5 118,-571.5 "/>
<path fill="none" stroke="black" d="M118,-571.5C118,-577.5 112,-583.5 106,-583.5"/>
<polyline fill="none" stroke="black" points="106,-583.5 13,-583.5 "/>
<path fill="none" stroke="black" d="M13,-583.5C7,-583.5 1,-577.5 1,-571.5"/>
<polyline fill="none" stroke="black" points="1,-571.5 1,-427.5 "/>
<path fill="none" stroke="black" d="M1,-427.5C1,-421.5 7,-415.5 13,-415.5"/>
<text text-anchor="middle" x="59.5" y="-566.9" font-family="Times,serif" font-size="14.00">ProjectController</text>
<polyline fill="none" stroke="black" points="1,-560.5 118,-560.5 "/>
<text text-anchor="start" x="9" y="-543.9" font-family="Times,serif" font-size="14.00">about</text>
<text text-anchor="start" x="9" y="-528.9" font-family="Times,serif" font-size="14.00">cardwall</text>
<text text-anchor="start" x="9" y="-513.9" font-family="Times,serif" font-size="14.00">home</text>
<text text-anchor="start" x="9" y="-498.9" font-family="Times,serif" font-size="14.00">iterations</text>
<text text-anchor="start" x="9" y="-483.9" font-family="Times,serif" font-size="14.00">requirements</text>
<text text-anchor="start" x="9" y="-468.9" font-family="Times,serif" font-size="14.00">stories</text>
<polyline fill="none" stroke="black" points="1,-462.5 118,-462.5 "/>
<polyline fill="none" stroke="black" points="1,-438.5 118,-438.5 "/>
<text text-anchor="start" x="9" y="-421.9" font-family="Times,serif" font-size="14.00">_layout</text>
</g>
<!-- RequirementsController -->
<g id="node5" class="node"><title>RequirementsController</title>
<polyline fill="none" stroke="black" points="121,-109.5 253,-109.5 "/>
<path fill="none" stroke="black" d="M253,-109.5C259,-109.5 265,-115.5 265,-121.5"/>
<polyline fill="none" stroke="black" points="265,-121.5 265,-280.5 "/>
<path fill="none" stroke="black" d="M265,-280.5C265,-286.5 259,-292.5 253,-292.5"/>
<polyline fill="none" stroke="black" points="253,-292.5 121,-292.5 "/>
<path fill="none" stroke="black" d="M121,-292.5C115,-292.5 109,-286.5 109,-280.5"/>
<polyline fill="none" stroke="black" points="109,-280.5 109,-121.5 "/>
<path fill="none" stroke="black" d="M109,-121.5C109,-115.5 115,-109.5 121,-109.5"/>
<text text-anchor="middle" x="187" y="-275.9" font-family="Times,serif" font-size="14.00">RequirementsController</text>
<polyline fill="none" stroke="black" points="109,-269.5 265,-269.5 "/>
<text text-anchor="start" x="117" y="-252.9" font-family="Times,serif" font-size="14.00">create</text>
<text text-anchor="start" x="117" y="-237.9" font-family="Times,serif" font-size="14.00">destroy</text>
<text text-anchor="start" x="117" y="-222.9" font-family="Times,serif" font-size="14.00">edit</text>
<text text-anchor="start" x="117" y="-207.9" font-family="Times,serif" font-size="14.00">index</text>
<text text-anchor="start" x="117" y="-192.9" font-family="Times,serif" font-size="14.00">new</text>
<text text-anchor="start" x="117" y="-177.9" font-family="Times,serif" font-size="14.00">show</text>
<text text-anchor="start" x="117" y="-162.9" font-family="Times,serif" font-size="14.00">update</text>
<polyline fill="none" stroke="black" points="109,-156.5 265,-156.5 "/>
<polyline fill="none" stroke="black" points="109,-132.5 265,-132.5 "/>
<text text-anchor="start" x="117" y="-115.9" font-family="Times,serif" font-size="14.00">_layout</text>
</g>
<!-- StoriesController -->
<g id="node6" class="node"><title>StoriesController</title>
<polyline fill="none" stroke="black" points="175,-325.5 267,-325.5 "/>
<path fill="none" stroke="black" d="M267,-325.5C273,-325.5 279,-331.5 279,-337.5"/>
<polyline fill="none" stroke="black" points="279,-337.5 279,-496.5 "/>
<path fill="none" stroke="black" d="M279,-496.5C279,-502.5 273,-508.5 267,-508.5"/>
<polyline fill="none" stroke="black" points="267,-508.5 175,-508.5 "/>
<path fill="none" stroke="black" d="M175,-508.5C169,-508.5 163,-502.5 163,-496.5"/>
<polyline fill="none" stroke="black" points="163,-496.5 163,-337.5 "/>
<path fill="none" stroke="black" d="M163,-337.5C163,-331.5 169,-325.5 175,-325.5"/>
<text text-anchor="middle" x="221" y="-491.9" font-family="Times,serif" font-size="14.00">StoriesController</text>
<polyline fill="none" stroke="black" points="163,-485.5 279,-485.5 "/>
<text text-anchor="start" x="171" y="-468.9" font-family="Times,serif" font-size="14.00">create</text>
<text text-anchor="start" x="171" y="-453.9" font-family="Times,serif" font-size="14.00">destroy</text>
<text text-anchor="start" x="171" y="-438.9" font-family="Times,serif" font-size="14.00">edit</text>
<text text-anchor="start" x="171" y="-423.9" font-family="Times,serif" font-size="14.00">index</text>
<text text-anchor="start" x="171" y="-408.9" font-family="Times,serif" font-size="14.00">new</text>
<text text-anchor="start" x="171" y="-393.9" font-family="Times,serif" font-size="14.00">show</text>
<text text-anchor="start" x="171" y="-378.9" font-family="Times,serif" font-size="14.00">update</text>
<polyline fill="none" stroke="black" points="163,-372.5 279,-372.5 "/>
<polyline fill="none" stroke="black" points="163,-348.5 279,-348.5 "/>
<text text-anchor="start" x="171" y="-331.9" font-family="Times,serif" font-size="14.00">_layout</text>
</g>
</g>
</svg>
