<?xml version="1.0" encoding="UTF-8" standalone="no"?>
<!DOCTYPE svg PUBLIC "-//W3C//DTD SVG 1.1//EN"
 "http://www.w3.org/Graphics/SVG/1.1/DTD/svg11.dtd">
<!-- Generated by graphviz version 2.26.3 (20100126.1600)
 -->
<!-- Title: models_diagram Pages: 1 -->
<svg width="336pt" height="230pt"
 viewBox="0.00 0.00 336.00 230.00" xmlns="http://www.w3.org/2000/svg" xmlns:xlink="http://www.w3.org/1999/xlink">
<g id="graph1" class="graph" transform="scale(1 1) rotate(0) translate(4 226)">
<title>models_diagram</title>
<polygon fill="white" stroke="white" points="-4,5 -4,-226 333,-226 333,5 -4,5"/>
<!-- _diagram_info -->
<g id="node1" class="node"><title>_diagram_info</title>
<text text-anchor="start" x="8" y="-206.3" font-family="Times,serif" font-size="13.00">Models diagram</text>
<text text-anchor="start" x="8" y="-192.3" font-family="Times,serif" font-size="13.00">Date: Nov 21 2010 &#45; 14:22</text>
<text text-anchor="start" x="8" y="-178.3" font-family="Times,serif" font-size="13.00">Migration version: 20101115184903</text>
<text text-anchor="start" x="8" y="-164.3" font-family="Times,serif" font-size="13.00">Generated by RailRoady 0.11.2</text>
<text text-anchor="start" x="8" y="-150.3" font-family="Times,serif" font-size="13.00">http://railroady.prestonlee.com</text>
</g>
<!-- Iteration -->
<g id="node2" class="node"><title>Iteration</title>
<ellipse fill="none" stroke="black" cx="266" cy="-183" rx="42.2463" ry="18"/>
<text text-anchor="middle" x="266" y="-177.9" font-family="Times,serif" font-size="14.00">Iteration</text>
</g>
<!-- Requirement -->
<g id="node3" class="node"><title>Requirement</title>
<ellipse fill="none" stroke="black" cx="266" cy="-18" rx="59.1448" ry="18"/>
<text text-anchor="middle" x="266" y="-12.9" font-family="Times,serif" font-size="14.00">Requirement</text>
</g>
<!-- Iteration&#45;&gt;Requirement -->
<g id="edge4" class="edge"><title>Iteration&#45;&gt;Requirement</title>
<path fill="none" stroke="black" d="M260.465,-156.866C256.406,-134.371 252.072,-101.044 255,-72 255.85,-63.5665 257.429,-54.5029 259.131,-46.2554"/>
<ellipse fill="none" stroke="black" cx="261.247" cy="-160.995" rx="4.00001" ry="4.00001"/>
<polygon fill="black" stroke="black" points="259.161,-46.1208 265.702,-37.3194 260.234,-41.2373 261.307,-36.3537 261.307,-36.3537 261.307,-36.3537 260.234,-41.2373 256.911,-35.388 259.161,-46.1208 259.161,-46.1208"/>
</g>
<!-- Story -->
<g id="node4" class="node"><title>Story</title>
<ellipse fill="none" stroke="black" cx="296" cy="-90" rx="31.8472" ry="18"/>
<text text-anchor="middle" x="296" y="-84.9" font-family="Times,serif" font-size="14.00">Story</text>
</g>
<!-- Iteration&#45;&gt;Story -->
<g id="edge2" class="edge"><title>Iteration&#45;&gt;Story</title>
<path fill="none" stroke="black" d="M274.3,-157.27C278.297,-144.879 283.093,-130.011 287.159,-117.408"/>
<ellipse fill="none" stroke="black" cx="273.012" cy="-161.262" rx="4.00001" ry="4.00001"/>
<polygon fill="black" stroke="black" points="287.163,-117.393 294.516,-109.258 288.698,-112.635 290.233,-107.876 290.233,-107.876 290.233,-107.876 288.698,-112.635 285.951,-106.495 287.163,-117.393 287.163,-117.393"/>
</g>
<!-- Story&#45;&gt;Requirement -->
<g id="edge6" class="edge"><title>Story&#45;&gt;Requirement</title>
<path fill="none" stroke="black" d="M285.421,-64.6102C282.847,-58.4338 280.083,-51.7999 277.471,-45.5295"/>
<ellipse fill="none" stroke="black" cx="287.046" cy="-68.5099" rx="4.00001" ry="4.00001"/>
<polygon fill="black" stroke="black" points="277.385,-45.3239 277.693,-34.3623 275.462,-40.7085 273.539,-36.0931 273.539,-36.0931 273.539,-36.0931 275.462,-40.7085 269.385,-37.8239 277.385,-45.3239 277.385,-45.3239"/>
</g>
</g>
</svg>
