<?xml version="1.0" encoding="UTF-8" standalone="no"?>
<!DOCTYPE svg PUBLIC "-//W3C//DTD SVG 1.1//EN"
 "http://www.w3.org/Graphics/SVG/1.1/DTD/svg11.dtd">
<!-- Generated by graphviz version 2.26.3 (20100126.1600)
 -->
<!-- Title: models_diagram Pages: 1 -->
<svg width="416pt" height="374pt"
 viewBox="0.00 0.00 416.00 374.00" xmlns="http://www.w3.org/2000/svg" xmlns:xlink="http://www.w3.org/1999/xlink">
<g id="graph1" class="graph" transform="scale(1 1) rotate(0) translate(4 370)">
<title>models_diagram</title>
<polygon fill="white" stroke="white" points="-4,5 -4,-370 413,-370 413,5 -4,5"/>
<!-- _diagram_info -->
<g id="node1" class="node"><title>_diagram_info</title>
<text text-anchor="start" x="8" y="-350.3" font-family="Times,serif" font-size="13.00">Models diagram</text>
<text text-anchor="start" x="8" y="-336.3" font-family="Times,serif" font-size="13.00">Date: Nov 21 2010 &#45; 14:22</text>
<text text-anchor="start" x="8" y="-322.3" font-family="Times,serif" font-size="13.00">Migration version: 20101115184903</text>
<text text-anchor="start" x="8" y="-308.3" font-family="Times,serif" font-size="13.00">Generated by RailRoady 0.11.2</text>
<text text-anchor="start" x="8" y="-294.3" font-family="Times,serif" font-size="13.00">http://railroady.prestonlee.com</text>
</g>
<!-- Iteration -->
<g id="node2" class="node"><title>Iteration</title>
<polyline fill="none" stroke="black" points="235.5,-289 346.5,-289 "/>
<path fill="none" stroke="black" d="M346.5,-289C352.5,-289 358.5,-295 358.5,-301"/>
<polyline fill="none" stroke="black" points="358.5,-301 358.5,-353 "/>
<path fill="none" stroke="black" d="M358.5,-353C358.5,-359 352.5,-365 346.5,-365"/>
<polyline fill="none" stroke="black" points="346.5,-365 235.5,-365 "/>
<path fill="none" stroke="black" d="M235.5,-365C229.5,-365 223.5,-359 223.5,-353"/>
<polyline fill="none" stroke="black" points="223.5,-353 223.5,-301 "/>
<path fill="none" stroke="black" d="M223.5,-301C223.5,-295 229.5,-289 235.5,-289"/>
<text text-anchor="middle" x="291" y="-348.4" font-family="Times,serif" font-size="14.00">Iteration</text>
<polyline fill="none" stroke="black" points="223.5,-342 358.5,-342 "/>
<text text-anchor="start" x="231.5" y="-325.4" font-family="Times,serif" font-size="14.00">label :string</text>
<text text-anchor="start" x="231.5" y="-310.4" font-family="Times,serif" font-size="14.00">created_at :datetime</text>
<text text-anchor="start" x="231.5" y="-295.4" font-family="Times,serif" font-size="14.00">updated_at :datetime</text>
</g>
<!-- Requirement -->
<g id="node3" class="node"><title>Requirement</title>
<polyline fill="none" stroke="black" points="234.5,-1 345.5,-1 "/>
<path fill="none" stroke="black" d="M345.5,-1C351.5,-1 357.5,-7 357.5,-13"/>
<polyline fill="none" stroke="black" points="357.5,-13 357.5,-65 "/>
<path fill="none" stroke="black" d="M357.5,-65C357.5,-71 351.5,-77 345.5,-77"/>
<polyline fill="none" stroke="black" points="345.5,-77 234.5,-77 "/>
<path fill="none" stroke="black" d="M234.5,-77C228.5,-77 222.5,-71 222.5,-65"/>
<polyline fill="none" stroke="black" points="222.5,-65 222.5,-13 "/>
<path fill="none" stroke="black" d="M222.5,-13C222.5,-7 228.5,-1 234.5,-1"/>
<text text-anchor="middle" x="290" y="-60.4" font-family="Times,serif" font-size="14.00">Requirement</text>
<polyline fill="none" stroke="black" points="222.5,-54 357.5,-54 "/>
<text text-anchor="start" x="230.5" y="-37.4" font-family="Times,serif" font-size="14.00">description :text</text>
<text text-anchor="start" x="230.5" y="-22.4" font-family="Times,serif" font-size="14.00">created_at :datetime</text>
<text text-anchor="start" x="230.5" y="-7.4" font-family="Times,serif" font-size="14.00">updated_at :datetime</text>
</g>
<!-- Iteration&#45;&gt;Requirement -->
<g id="edge4" class="edge"><title>Iteration&#45;&gt;Requirement</title>
<path fill="none" stroke="black" d="M269.595,-281.431C266.03,-271.905 262.883,-261.779 261,-252 249.401,-191.773 249.749,-174.293 261,-114 262.693,-104.93 265.444,-95.5436 268.595,-86.6095"/>
<ellipse fill="none" stroke="black" cx="271.07" cy="-285.2" rx="4.00001" ry="4.00001"/>
<polygon fill="black" stroke="black" points="268.638,-86.4955 276.355,-78.7048 270.389,-81.8121 272.14,-77.1288 272.14,-77.1288 272.14,-77.1288 270.389,-81.8121 267.925,-75.5528 268.638,-86.4955 268.638,-86.4955"/>
</g>
<!-- Story -->
<g id="node4" class="node"><title>Story</title>
<polyline fill="none" stroke="black" points="282,-115 396,-115 "/>
<path fill="none" stroke="black" d="M396,-115C402,-115 408,-121 408,-127"/>
<polyline fill="none" stroke="black" points="408,-127 408,-239 "/>
<path fill="none" stroke="black" d="M408,-239C408,-245 402,-251 396,-251"/>
<polyline fill="none" stroke="black" points="396,-251 282,-251 "/>
<path fill="none" stroke="black" d="M282,-251C276,-251 270,-245 270,-239"/>
<polyline fill="none" stroke="black" points="270,-239 270,-127 "/>
<path fill="none" stroke="black" d="M270,-127C270,-121 276,-115 282,-115"/>
<text text-anchor="middle" x="339" y="-234.4" font-family="Times,serif" font-size="14.00">Story</text>
<polyline fill="none" stroke="black" points="270,-228 408,-228 "/>
<text text-anchor="start" x="278" y="-211.4" font-family="Times,serif" font-size="14.00">title :string</text>
<text text-anchor="start" x="278" y="-196.4" font-family="Times,serif" font-size="14.00">description :text</text>
<text text-anchor="start" x="278" y="-181.4" font-family="Times,serif" font-size="14.00">estimate :string</text>
<text text-anchor="start" x="278" y="-166.4" font-family="Times,serif" font-size="14.00">status :string</text>
<text text-anchor="start" x="278" y="-151.4" font-family="Times,serif" font-size="14.00">created_at :datetime</text>
<text text-anchor="start" x="278" y="-136.4" font-family="Times,serif" font-size="14.00">updated_at :datetime</text>
<text text-anchor="start" x="278" y="-121.4" font-family="Times,serif" font-size="14.00">businessValue :string</text>
</g>
<!-- Iteration&#45;&gt;Story -->
<g id="edge2" class="edge"><title>Iteration&#45;&gt;Story</title>
<path fill="none" stroke="black" d="M306.337,-280.989C308.465,-274.605 310.698,-267.907 312.955,-261.136"/>
<ellipse fill="none" stroke="black" cx="305.002" cy="-284.994" rx="4.00001" ry="4.00001"/>
<polygon fill="black" stroke="black" points="313.107,-260.678 320.539,-252.614 314.689,-255.934 316.27,-251.191 316.27,-251.191 316.27,-251.191 314.689,-255.934 312.001,-249.768 313.107,-260.678 313.107,-260.678"/>
</g>
<!-- Story&#45;&gt;Requirement -->
<g id="edge6" class="edge"><title>Story&#45;&gt;Requirement</title>
<path fill="none" stroke="black" d="M313.209,-107.207C310.884,-100.374 308.575,-93.5867 306.365,-87.092"/>
<ellipse fill="none" stroke="black" cx="314.503" cy="-111.009" rx="4.00001" ry="4.00001"/>
<polygon fill="black" stroke="black" points="306.207,-86.6296 307.246,-75.713 304.597,-81.8961 302.986,-77.1626 302.986,-77.1626 302.986,-77.1626 304.597,-81.8961 298.726,-78.6123 306.207,-86.6296 306.207,-86.6296"/>
</g>
</g>
</svg>
